<svg xmlns="http://www.w3.org/2000/svg" version="1.1" xmlns:xlink="http://www.w3.org/1999/xlink" xmlns:svgjs="http://svgjs.dev/svgjs" width="128" height="128" viewBox="0 0 128 128"><g transform="matrix(0.8046875,0,0,0.8046875,12.574902920684274,7.8938130040322605)"><svg viewBox="0 0 142 155" data-background-color="#070707" preserveAspectRatio="xMidYMid meet" height="139" width="128" xmlns="http://www.w3.org/2000/svg" xmlns:xlink="http://www.w3.org/1999/xlink"><g id="tight-bounds" transform="matrix(1,0,0,1,-0.10326422074919606,0.25)"><svg viewBox="0 0 142.2065284414984 154.5" height="154.5" width="142.2065284414984"><g><svg viewBox="0 0 142.2065284414984 154.5" height="154.5" width="142.2065284414984"><g><svg viewBox="0 0 142.2065284414984 154.5" height="154.5" width="142.2065284414984"><g><svg viewBox="0 0 142.2065284414984 154.5" height="154.5" width="142.2065284414984"><g><svg viewBox="0 0 142.2065284414984 154.5" height="154.5" width="142.2065284414984"><g transform="matrix(1,0,0,1,0,0)"><svg width="142.2065284414984" viewBox="3.639999999999997 -35.010000000000005 34.980000000000004 35.010000000000005" height="154.5" data-palette-color="#fffefe"><svg></svg><g class="undefined-text-0" data-fill-palette-color="primary" id="text-0"><path d="M38.62-8.91v1.22c0 0.78-0.133 1.617-0.4 2.51-0.267 0.9-0.707 1.73-1.32 2.49-0.607 0.767-1.4 1.407-2.38 1.92-0.973 0.513-2.17 0.77-3.59 0.77v0h-24.09c-0.46 0-0.883-0.08-1.27-0.24-0.393-0.167-0.733-0.393-1.02-0.68-0.28-0.28-0.503-0.617-0.67-1.01-0.16-0.387-0.24-0.81-0.24-1.27v0-28.61c0-0.44 0.08-0.857 0.24-1.25 0.167-0.387 0.39-0.727 0.67-1.02 0.287-0.293 0.627-0.523 1.02-0.69 0.387-0.16 0.81-0.24 1.27-0.24v0h21.24c0.78 0 1.617 0.14 2.51 0.42 0.893 0.273 1.727 0.717 2.5 1.33 0.773 0.607 1.417 1.4 1.93 2.38 0.513 0.973 0.77 2.17 0.77 3.59v0 1.19c0 1.127-0.187 2.337-0.56 3.63-0.373 1.293-0.977 2.517-1.81 3.67v0c0.72 0.44 1.393 0.97 2.02 1.59 0.627 0.62 1.173 1.337 1.64 2.15 0.473 0.813 0.85 1.733 1.13 2.76 0.273 1.02 0.41 2.15 0.41 3.39zM32.28-7.74v-1.17c0-0.833-0.133-1.58-0.4-2.24-0.26-0.653-0.623-1.217-1.09-1.69-0.473-0.473-1.043-0.837-1.71-1.09-0.667-0.253-1.417-0.38-2.25-0.38v0h-14.31v-6.39h11.45c0.833 0 1.583-0.127 2.25-0.38 0.667-0.253 1.237-0.617 1.71-1.09 0.473-0.473 0.837-1.037 1.09-1.69 0.247-0.66 0.37-1.407 0.37-2.24v0-1.19c0-0.913-0.437-1.37-1.31-1.37v0h-18.09v22.31h20.94c0.113 0 0.253-0.007 0.42-0.02 0.16-0.02 0.307-0.07 0.44-0.15 0.127-0.08 0.24-0.217 0.34-0.41 0.1-0.2 0.15-0.47 0.15-0.81z" fill="#000000" fill-rule="nonzero" stroke="none" stroke-width="1" stroke-linecap="butt" stroke-linejoin="miter" stroke-miterlimit="10" stroke-dasharray="" stroke-dashoffset="0" font-family="none" font-weight="none" font-size="none" text-anchor="none" style="mix-blend-mode: normal" data-fill-palette-color="primary" opacity="1"></path></g></svg></g></svg></g></svg></g></svg></g></svg></g><defs></defs></svg><rect width="142.2065284414984" height="154.5" fill="none" stroke="none" visibility="hidden"></rect></g></svg></g></svg>