<svg xmlns="http://www.w3.org/2000/svg" version="1.1" xmlns:xlink="http://www.w3.org/1999/xlink" xmlns:svgjs="http://svgjs.dev/svgjs" width="1000" height="141" viewBox="0 0 1000 141"><g transform="matrix(1,0,0,1,-0.6060605172593228,0.07715947562279268)"><svg viewBox="0 0 396 56" data-background-color="#070707" preserveAspectRatio="xMidYMid meet" height="141" width="1000" xmlns="http://www.w3.org/2000/svg" xmlns:xlink="http://www.w3.org/1999/xlink"><g id="tight-bounds" transform="matrix(1,0,0,1,0.23999996483468067,-0.030642210401794046)"><svg viewBox="0 0 395.52 56.06128710852148" height="56.06128710852148" width="395.52"><g><svg viewBox="0 0 395.52 56.06128710852148" height="56.06128710852148" width="395.52"><g><svg viewBox="0 0 395.52 56.06128710852148" height="56.06128710852148" width="395.52"><g><svg viewBox="0 0 395.52 56.06128710852148" height="56.06128710852148" width="395.52"><g><svg viewBox="0 0 395.52 56.06128710852148" height="56.06128710852148" width="395.52"><g transform="matrix(1,0,0,1,0,0)"><svg width="395.52" viewBox="3.639996290206909 -35.0099983215332 268.1600036621094 35.01000213623047" height="56.06128710852148" data-palette-color="#fffefe"><svg></svg><g class="undefined-text-0" data-fill-palette-color="primary" id="text-0"><path xmlns="http://www.w3.org/2000/svg" d="M38.62-8.91v1.22c0 0.78-0.133 1.617-0.4 2.51-0.267 0.9-0.707 1.73-1.32 2.49-0.607 0.767-1.4 1.407-2.38 1.92-0.973 0.513-2.17 0.77-3.59 0.77v0h-24.09c-0.46 0-0.883-0.08-1.27-0.24-0.393-0.167-0.733-0.393-1.02-0.68-0.28-0.28-0.503-0.617-0.67-1.01-0.16-0.387-0.24-0.81-0.24-1.27v0-28.61c0-0.44 0.08-0.857 0.24-1.25 0.167-0.387 0.39-0.727 0.67-1.02 0.287-0.293 0.627-0.523 1.02-0.69 0.387-0.16 0.81-0.24 1.27-0.24v0h21.24c0.78 0 1.617 0.14 2.51 0.42 0.893 0.273 1.727 0.717 2.5 1.33 0.773 0.607 1.417 1.4 1.93 2.38 0.513 0.973 0.77 2.17 0.77 3.59v0 1.19c0 1.127-0.187 2.337-0.56 3.63-0.373 1.293-0.977 2.517-1.81 3.67v0c0.72 0.44 1.393 0.97 2.02 1.59 0.627 0.62 1.173 1.337 1.64 2.15 0.473 0.813 0.85 1.733 1.13 2.76 0.273 1.02 0.41 2.15 0.41 3.39zM32.28-7.74v-1.17c0-0.833-0.133-1.58-0.4-2.24-0.26-0.653-0.623-1.217-1.09-1.69-0.473-0.473-1.043-0.837-1.71-1.09-0.667-0.253-1.417-0.38-2.25-0.38v0h-14.31v-6.39h11.45c0.833 0 1.583-0.127 2.25-0.38 0.667-0.253 1.237-0.617 1.71-1.09 0.473-0.473 0.837-1.037 1.09-1.69 0.247-0.66 0.37-1.407 0.37-2.24v0-1.19c0-0.913-0.437-1.37-1.31-1.37v0h-18.09v22.31h20.94c0.113 0 0.253-0.007 0.42-0.02 0.16-0.02 0.307-0.07 0.44-0.15 0.127-0.08 0.24-0.217 0.34-0.41 0.1-0.2 0.15-0.47 0.15-0.81zM76.29-6.35v6.35h-28.95c-0.453 0-0.877-0.08-1.27-0.24-0.393-0.167-0.73-0.393-1.01-0.68-0.287-0.28-0.513-0.617-0.68-1.01-0.16-0.387-0.24-0.81-0.24-1.27v0-31.81h6.35v28.66zM115.31-31.81v31.81h-6.35v-8.59h-22.31v8.59h-6.35v-17.5c0-2.56 0.44-4.913 1.32-7.06 0.873-2.147 2.093-3.993 3.66-5.54 1.56-1.547 3.407-2.753 5.54-3.62 2.133-0.86 4.46-1.29 6.98-1.29v0h14.31c0.44 0 0.853 0.08 1.24 0.24 0.393 0.167 0.737 0.397 1.03 0.69 0.293 0.293 0.52 0.633 0.68 1.02 0.167 0.393 0.25 0.81 0.25 1.25zM86.65-17.5v2.56h22.31v-13.72h-11.16c-0.193 0-0.603 0.027-1.23 0.08-0.627 0.06-1.35 0.203-2.17 0.43-0.827 0.227-1.693 0.577-2.6 1.05-0.913 0.473-1.753 1.123-2.52 1.95-0.767 0.833-1.397 1.873-1.89 3.12-0.493 1.24-0.74 2.75-0.74 4.53zM156.32-10.3v0c0 1.253-0.157 2.38-0.47 3.38-0.32 1-0.74 1.883-1.26 2.65-0.52 0.76-1.13 1.41-1.83 1.95-0.7 0.54-1.423 0.98-2.17 1.32-0.753 0.34-1.517 0.593-2.29 0.76-0.773 0.16-1.5 0.24-2.18 0.24v0h-24.49v-6.35h24.49c1.22 0 2.167-0.357 2.84-1.07 0.68-0.72 1.02-1.68 1.02-2.88v0c0-0.587-0.09-1.123-0.27-1.61-0.18-0.493-0.437-0.917-0.77-1.27-0.333-0.36-0.74-0.637-1.22-0.83-0.48-0.2-1.013-0.3-1.6-0.3v0h-14.6c-1.027 0-2.133-0.183-3.32-0.55-1.187-0.367-2.29-0.957-3.31-1.77-1.02-0.813-1.867-1.877-2.54-3.19-0.673-1.32-1.01-2.933-1.01-4.84v0c0-1.9 0.337-3.507 1.01-4.82 0.673-1.313 1.52-2.38 2.54-3.2 1.02-0.82 2.123-1.413 3.31-1.78 1.187-0.367 2.293-0.55 3.32-0.55v0h21.61v6.35h-21.61c-1.207 0-2.147 0.367-2.82 1.1-0.673 0.733-1.01 1.7-1.01 2.9v0c0 1.22 0.337 2.183 1.01 2.89 0.673 0.713 1.613 1.07 2.82 1.07v0h14.6 0.05c0.68 0.013 1.403 0.107 2.17 0.28 0.767 0.167 1.527 0.43 2.28 0.79 0.76 0.36 1.48 0.813 2.16 1.36 0.687 0.54 1.293 1.193 1.82 1.96 0.533 0.767 0.953 1.647 1.26 2.64 0.307 0.993 0.46 2.117 0.46 3.37zM192.87-35.01v6.35h-13.99v28.66h-6.35v-28.66h-14.01v-6.35zM226.32-20.7v6.39h-20.05v-6.39zM229.17-6.35v6.35h-22.9c-0.873 0-1.833-0.153-2.88-0.46-1.04-0.313-2.003-0.823-2.89-1.53-0.887-0.707-1.627-1.627-2.22-2.76-0.593-1.133-0.89-2.52-0.89-4.16v0-22.9c0-0.44 0.08-0.857 0.24-1.25 0.167-0.387 0.39-0.727 0.67-1.02 0.287-0.293 0.627-0.523 1.02-0.69 0.387-0.16 0.81-0.24 1.27-0.24v0h28.58v6.35h-25.43v19.75c0 0.827 0.217 1.46 0.65 1.9 0.44 0.44 1.083 0.66 1.93 0.66v0zM270.29-27.29v4.05c0 1.447-0.18 2.74-0.54 3.88-0.36 1.14-0.843 2.143-1.45 3.01-0.613 0.873-1.317 1.62-2.11 2.24-0.8 0.62-1.637 1.127-2.51 1.52-0.867 0.4-1.743 0.69-2.63 0.87-0.887 0.18-1.723 0.27-2.51 0.27v0l13.26 11.45h-9.81l-13.24-11.45h-4.56v-6.35h14.35c0.8-0.067 1.53-0.233 2.19-0.5 0.66-0.267 1.23-0.627 1.71-1.08 0.48-0.46 0.85-1.01 1.11-1.65 0.26-0.647 0.39-1.383 0.39-2.21v0-4.01c0-0.353-0.043-0.623-0.13-0.81-0.093-0.187-0.21-0.327-0.35-0.42-0.133-0.087-0.28-0.14-0.44-0.16-0.153-0.013-0.293-0.02-0.42-0.02v0h-20.95v28.66h-6.35v-31.81c0-0.44 0.083-0.857 0.25-1.25 0.16-0.387 0.383-0.727 0.67-1.02 0.287-0.293 0.623-0.523 1.01-0.69 0.393-0.16 0.817-0.24 1.27-0.24v0h24.1c1.413 0 2.61 0.257 3.59 0.77 0.973 0.513 1.767 1.157 2.38 1.93 0.607 0.773 1.047 1.607 1.32 2.5 0.267 0.893 0.4 1.733 0.4 2.52z" fill="#fffefe" fill-rule="nonzero" stroke="none" stroke-width="1" stroke-linecap="butt" stroke-linejoin="miter" stroke-miterlimit="10" stroke-dasharray="" stroke-dashoffset="0" font-family="none" font-weight="none" font-size="none" text-anchor="none" style="mix-blend-mode: normal" data-fill-palette-color="primary" opacity="1"></path></g></svg></g></svg></g></svg></g></svg></g></svg></g><defs></defs></svg><rect width="395.52" height="56.06128710852148" fill="none" stroke="none" visibility="hidden"></rect></g></svg></g></svg>